<svg xmlns="http://www.w3.org/2000/svg" width="386.92" height="546.13" viewBox="0 100 362.73 512">
  <path style="fill:#264de4" d="m437.37 100.62-33.05 370.2L255.78 512l-148.14-41.12-33.01-370.26z" transform="translate(-74.63)"/>
  <path style="fill:#2965f1" d="m376.03 447.25 28.24-316.36H256v349.63z" transform="translate(-74.63)"/>
  <path style="fill:#ebebeb" d="m150.31 268.22 4.07 45.41H256v-45.41zM256 176.31H142.13l4.13 45.41H256zm0 257.09v-47.25l-.2.06-50.57-13.66-3.24-36.22h-45.58l6.36 71.3 93.02 25.83z" transform="translate(-74.63)"/>
  <path style="fill:#fff" d="m311.76 313.63-5.27 58.89-50.65 13.67v47.25l93.1-25.81.68-7.67 10.67-119.55 1.11-12.19 8.2-91.91H255.84v45.41h63.99l-4.13 46.5h-59.86v45.41z" transform="translate(-74.63)"/>
</svg>