<?xml version="1.0" encoding="UTF-8"?>
<svg width="386.92" height="546.13" version="1.1" viewBox="0 100 362.73 512" xmlns="http://www.w3.org/2000/svg">
 <path d="m362.74 152.89-33.05 370.2-148.54 41.18-148.14-41.12-33.01-370.26z" fill="#264de4"/>
 <path d="m301.4 499.52 28.24-316.36h-148.27v349.63z" fill="#2965f1"/>
 <path d="m75.68 320.49 4.07 45.41h101.62v-45.41zm105.69-91.91h-113.87l4.13 45.41h109.74zm0 257.09v-47.25l-0.2 0.06-50.57-13.66-3.24-36.22h-45.58l6.36 71.3 93.02 25.83z" fill="#ebebeb"/>
 <path d="m237.13 365.9-5.27 58.89-50.65 13.67v47.25l93.1-25.81 0.68-7.67 10.67-119.55 1.11-12.19 8.2-91.91h-113.76v45.41h63.99l-4.13 46.5h-59.86v45.41z" fill="#fff"/>
</svg>
