<svg xmlns="http://www.w3.org/2000/svg" xmlns:xlink="http://www.w3.org/1999/xlink" viewBox="0 0 67 40" fill-rule="evenodd" stroke="#000" stroke-linecap="round" stroke-linejoin="round">
  <use xlink:href="#a" x="1" y="1"/>
  <symbol id="a" overflow="visible">
  <g style="fill:#fff">
    <path d="M64 36.17c-2.33.59-3.77.02-5.06-1.92l-9.19-12.7-1.33-1.77L37.7 34.3c-1.22 1.75-2.5 2.51-4.8 1.9l13.74-18.45-12.8-16.67c2.2-.43 3.72-.21 5.07 1.76l9.53 12.87 9.6-12.8C59.27 1.16 60.6.5 62.8 1.14l-4.96 6.58-6.72 8.75c-.8 1-.69 1.68.05 2.65L64 36.17zM.02 17.43l1.12-5.53C4.2.96 16.74-3.58 25.39 3.18c5.05 3.97 6.3 9.6 6.06 15.9H2.96c-.43 11.34 7.73 18.18 18.14 14.69 3.65-1.23 5.8-4.09 6.88-7.66.54-1.8 1.45-2.07 3.13-1.56-.86 4.47-2.8 8.2-6.9 10.54-6.13 3.5-14.87 2.37-19.47-2.5C2 29.79.87 26.2.36 22.39c-.08-.64-.24-1.24-.36-1.84l.02-3.1zm3-.76h25.74C28.59 8.47 23.48 2.65 16.5 2.6 8.84 2.54 3.34 8.22 3.01 16.67z" stroke="none" fill-rule="nonzero"/>
</g>
  </symbol>
</svg>
