<svg viewBox="0 0 24 24" xml:space="preserve" xmlns="http://www.w3.org/2000/svg">
  <path d="M23.56 10.93 13.06.43a1.54 1.54 0 0 0-2.12 0L.44 10.93a1.5 1.5 0 0 0 0 2.12l10.5 10.51a1.49 1.49 0 0 0 2.12 0l10.5-10.5a1.5 1.5 0 0 0 0-2.13z" fill="#EF473B"/>
  <path d="m23.68 12.69-10.6 10.62a1.5 1.5 0 0 1-2.15 0L.32 12.69a1.51 1.51 0 0 1-.3-.42c.06.3.2.57.42.78l10.5 10.51a1.49 1.49 0 0 0 2.12 0l10.5-10.5c.22-.22.36-.5.41-.8-.07.16-.17.3-.29.43z" fill="#010101" opacity=".1"/>
  <path d="M17 10c-.37 0-.72.11-1.02.29L13.7 8.02c.18-.3.29-.65.29-1.02a2 2 0 0 0-2-2c-.37 0-.71.1-1.01.28L8.54 2.83l-.71.7L10.28 6a1.98 1.98 0 0 0 1.22 2.94v6.14a2 2 0 1 0 1 0V8.93c.18-.05.34-.12.5-.2L15.28 11c-.17.3-.28.64-.28 1a2 2 0 1 0 2-2z" fill="#FFF"/>
  <path d="M.44 11.18 10.94.68a1.54 1.54 0 0 1 2.12 0l10.5 10.5c.25.26.4.59.43.94l.01-.13c0-.4-.16-.77-.44-1.06L13.06.43a1.54 1.54 0 0 0-2.12 0L.44 10.93A1.5 1.5 0 0 0 0 12l.01.13c.03-.35.18-.68.43-.94z" fill="#FFF" opacity=".2"/>
  <linearGradient gradientUnits="userSpaceOnUse" id="a" x1="9.67" x2="18.31" y1="9.68" y2="18.31">
    <stop offset="0" style="stop-color:#010101;stop-opacity:.1"/>
    <stop offset="1" style="stop-color:#010101;stop-opacity:0"/>
  </linearGradient>
  <path d="M18.55 10.75c.28.34.45.77.45 1.25a2 2 0 0 1-4 0c0-.36.1-.7.28-1L13 8.72c-.16.1-.32.16-.5.2v6.15a2 2 0 1 1-1.83 3.41l3.73 3.74 7.8-7.81-3.65-3.66zM13.7 8.02l2.27 2.27a1.97 1.97 0 0 1 2.27.16l-4.68-4.68a1.98 1.98 0 0 1 .14 2.25z" fill="url(#a)"/>
  <linearGradient gradientUnits="userSpaceOnUse" id="b" x1="2.01" x2="21.98" y1="7.34" y2="16.65">
    <stop offset="0" style="stop-color:#fff;stop-opacity:.2"/>
    <stop offset="1" style="stop-color:#fff;stop-opacity:0"/>
  </linearGradient>
  <path d="M23.56 10.93 13.06.43a1.54 1.54 0 0 0-2.12 0L.44 10.93a1.5 1.5 0 0 0 0 2.12l10.5 10.51a1.49 1.49 0 0 0 2.12 0l10.5-10.5a1.5 1.5 0 0 0 0-2.13z" fill="url(#b)"/>
</svg>
