<svg height="512" style="enable-background:new 0 0 512 512" width="512" xml:space="preserve" xmlns="http://www.w3.org/2000/svg">
  <path d="M255.9 486a35.75 35.75 0 0 1-17.7-4.75l-56.32-33.31c-8.4-4.75-4.29-6.4-1.55-7.3 11.23-3.93 13.5-4.75 25.46-11.6 1.28-.73 2.93-.45 4.2.37l43.27 25.65c1.55.9 3.74.9 5.2 0l168.6-97.3a5.4 5.4 0 0 0 2.55-4.57v-194.6c0-1.92-1-3.66-2.65-4.66l-168.5-97.21a5.28 5.28 0 0 0-5.2 0l-168.4 97.3a5.33 5.33 0 0 0-2.65 4.65V353.2c0 1.82 1 3.65 2.64 4.47l46.19 26.65c25.1 12.5 40.44-2.19 40.44-17.06V175.19a4.83 4.83 0 0 1 4.93-4.83h21.36c2.64 0 4.92 2.1 4.92 4.83v192.15c0 33.4-18.25 52.57-49.92 52.57-9.77 0-17.44 0-38.8-10.58L69.8 383.86a35.5 35.5 0 0 1-17.7-30.76V158.58a35.6 35.6 0 0 1 17.7-30.76l168.41-97.3c10.68-6.03 24.83-6.03 35.42 0l168.59 97.4a35.5 35.5 0 0 1 17.7 30.75V353.2c0 12.6-6.75 24.37-17.7 30.76l-168.6 97.3a35.5 35.5 0 0 1-17.7 4.75zM392 294.22c0-36.42-24.64-46.1-76.4-52.94-52.39-6.94-57.68-10.5-57.68-22.73 0-10.13 4.47-23.64 43.26-23.64 34.6 0 47.38 7.49 52.67 30.86a4.89 4.89 0 0 0 4.75 3.83h21.9a4.81 4.81 0 0 0 4.84-5.3c-3.37-40.25-30.12-58.96-84.16-58.96-48.1 0-76.76 20.26-76.76 54.31 0 36.88 28.57 47.1 74.66 51.66 55.23 5.39 59.52 13.51 59.52 24.38 0 18.8-15.15 26.83-50.66 26.83-44.64 0-54.4-11.23-57.69-33.4a4.83 4.83 0 0 0-4.84-4.11H223.6a4.81 4.81 0 0 0-4.84 4.83c0 28.4 15.43 62.26 89.27 62.26 53.3-.1 83.98-21.18 83.98-57.88z" style="fill:#539e43"/>
</svg>
