<svg xmlns="http://www.w3.org/2000/svg" xmlns:xlink="http://www.w3.org/1999/xlink" viewBox="0 0 318 318">
  <defs>
    <path id="a" d="M0 0h318v318H0z"/>
    <mask id="b" width="318" height="318" x="0" y="0" fill="#fff">
      <use xlink:href="#a"/>
    </mask>
  </defs>
  <g fill="none" fill-rule="evenodd">
    <use xlink:href="#a" stroke="#4A4A4A" stroke-width="8" mask="url(#b)"/>
    <path fill="#FFFFFF" d="M44.28 229.42c-4.42 0-7.34 2.37-7.34 5.54 0 2.8 1.73 4.68 5.65 5.76 3.57 1 4.32 1.51 4.32 3.1 0 1.44-1.33 2.3-3.38 2.3a8.6 8.6 0 0 1-5.19-1.87l-2.3 2.59a11.14 11.14 0 0 0 7.6 2.7c4.35 0 8.02-2.09 8.02-6.05 0-3.38-2.2-4.97-6.08-6.01-3.24-.9-4-1.48-4-2.74 0-1.15 1.05-1.9 2.88-1.9 1.7 0 3.2.54 4.8 1.54l1.8-2.7a10.71 10.71 0 0 0-6.78-2.26zm20.42 15.73 1.62 2.95a8.33 8.33 0 0 1-4.8 1.44c-3.74-.04-5.72-2.16-5.72-6.23v-10.04h-2.98v-3.31h2.98v-4.22l4.61-.54v4.76h4.43l-.47 3.3h-3.96v9.94c0 1.88.61 2.63 2.02 2.63.72 0 1.44-.21 2.27-.68zm19.62-15.2-6.2 19.12c-1.44 4.47-4.24 7.35-9.9 7.78l-.46-3.35c3.78-.58 5-1.8 6.08-4.5h-1.58l-6.05-19.04h4.9l4.13 15.98 4.32-15.98h4.76zm7.3 19.59a7.5 7.5 0 0 0 3.06-.65l-.97-3.24c-.32.11-.65.18-1.08.18-.75 0-1.08-.43-1.08-1.33v-22.68l-4.6.5v22.32c0 3.14 1.76 4.9 4.67 4.9zm21.75-10.51c0 .61-.07 1.37-.11 1.87h-11.95c.32 3.89 2.16 5.15 4.68 5.15 1.69 0 3.1-.54 4.75-1.7l1.9 2.63a10.95 10.95 0 0 1-7.05 2.56c-5.9 0-9.07-3.92-9.07-9.94 0-5.8 3.06-10.18 8.46-10.18 5.33 0 8.39 3.6 8.39 9.6zm-4.57-1.12v-.21c0-3.14-1.12-5-3.71-5-2.16 0-3.53 1.43-3.78 5.21h7.49zm20.12-16.09 4.6.5V249h-4.06l-.32-2.41a6.36 6.36 0 0 1-5.44 2.95c-4.75 0-7.24-4-7.24-10.04 0-5.87 2.96-10.08 7.67-10.08 2.02 0 3.6.86 4.79 2.05v-9.65zM125 246.05c1.69 0 2.84-.83 3.92-2.45v-8.71c-1-1.23-2.09-2.02-3.64-2.02-2.37 0-3.96 2.02-3.96 6.59 0 4.9 1.4 6.59 3.68 6.59zm-80.56 19.37c-5.47 0-8.9 4.14-8.9 10.22 0 6.08 3.43 9.9 8.94 9.9a9.4 9.4 0 0 0 6.15-2.2l-2.05-2.91c-1.4.9-2.41 1.37-3.85 1.37-2.6 0-4.29-1.62-4.29-6.23 0-4.57 1.62-6.52 4.29-6.52 1.44 0 2.59.43 3.85 1.37l2.05-2.77a8.87 8.87 0 0 0-6.19-2.23zm17.32 0c5.61 0 8.92 3.81 8.92 10.04 0 6.01-3.34 10.08-8.96 10.08-5.62 0-8.96-3.82-8.96-10.08 0-5.98 3.34-10.04 9-10.04zm0 3.49c-2.7 0-4.14 2.05-4.14 6.55 0 4.57 1.4 6.59 4.1 6.59s4.1-2.05 4.1-6.59-1.4-6.55-4.06-6.55zm33.44-3.5c-2.52 0-4.28 1.23-5.72 3.21a4.64 4.64 0 0 0-4.61-3.2c-2.41 0-4.14 1.11-5.51 3.02l-.36-2.48h-4V285h4.61v-13.25c1.05-1.76 2.02-2.88 3.64-2.88 1.11 0 2.09.69 2.09 3.06V285h4.6v-13.25c1.05-1.76 2.02-2.88 3.6-2.88 1.16 0 2.1.69 2.1 3.06V285h4.6v-13.79c0-3.6-2.02-5.8-5.04-5.8zm20.27 0c4.97 0 7.05 3.93 7.05 10.01 0 5.84-2.7 10.12-7.52 10.12-1.94 0-3.6-.68-4.79-2.09v8.9l-4.6.5v-26.9h4.03l.25 2.35a6.91 6.91 0 0 1 5.58-2.88zm-1.77 16.6c2.52 0 4-1.94 4-6.55 0-4.82-1.3-6.59-3.6-6.59-1.62 0-2.99 1.12-3.89 2.6v8.56a4.03 4.03 0 0 0 3.5 1.98zm21.14-16.6c5.61 0 8.92 3.82 8.92 10.05 0 6.01-3.34 10.08-8.96 10.08-5.62 0-8.96-3.82-8.96-10.08 0-5.98 3.34-10.04 9-10.04zm0 3.5c-2.7 0-4.14 2.05-4.14 6.55 0 4.57 1.4 6.59 4.1 6.59s4.1-2.05 4.1-6.59-1.4-6.55-4.06-6.55zm23.4-3.5c-2.42 0-4.32 1.12-5.8 3.03l-.36-2.48h-4V285h4.61v-13.25c1.12-1.76 2.34-2.88 4-2.88 1.44 0 2.34.69 2.34 3.06V285h4.6v-13.79c0-3.63-1.97-5.8-5.4-5.8zm26.38 9.62c0 .61-.07 1.37-.1 1.87h-11.96c.33 3.89 2.16 5.15 4.68 5.15 1.7 0 3.1-.54 4.76-1.7l1.9 2.63a10.95 10.95 0 0 1-7.05 2.56c-5.9 0-9.07-3.92-9.07-9.94 0-5.8 3.06-10.18 8.46-10.18 5.32 0 8.38 3.6 8.38 9.6zm-4.57-1.12v-.21c0-3.14-1.11-5-3.7-5-2.17 0-3.53 1.43-3.79 5.21h7.5zm18.87-8.5c-2.42 0-4.32 1.12-5.8 3.03l-.36-2.48h-4V285h4.61v-13.25c1.12-1.76 2.34-2.88 4-2.88 1.44 0 2.34.69 2.34 3.06V285h4.6v-13.79c0-3.63-1.97-5.8-5.4-5.8zm20.05 15.74c-.83.47-1.55.68-2.27.68-1.4 0-2.02-.75-2.02-2.63v-9.93h3.96l.47-3.31h-4.43v-4.76l-4.6.54v4.22h-3v3.3h3v10.05c0 4.07 1.98 6.2 5.72 6.23 1.7 0 3.42-.47 4.79-1.44l-1.62-2.95zm10.22-15.73c-4.43 0-7.34 2.37-7.34 5.54 0 2.8 1.73 4.68 5.65 5.76 3.56 1 4.32 1.51 4.32 3.1 0 1.44-1.33 2.3-3.38 2.3a8.6 8.6 0 0 1-5.19-1.87l-2.3 2.59a11.14 11.14 0 0 0 7.6 2.7c4.35 0 8.02-2.09 8.02-6.05 0-3.38-2.2-4.97-6.08-6.01-3.24-.9-4-1.48-4-2.74 0-1.15 1.05-1.9 2.88-1.9 1.7 0 3.2.54 4.79 1.54l1.8-2.7a10.71 10.71 0 0 0-6.77-2.26zM79.8 87.2l-36.2 22.5 36.2 22.9-3.7 4.6-37.7-23.6v-7.9l38.1-23.6m189.3 22.7v7.8l-37.7 23.6-3.7-4.9 36.1-22.6L224.4 86l3.2-4.9"/>
    <text fill="#000" font-family="AppleColorEmoji, Apple Color Emoji" font-size="100" letter-spacing=".5" transform="translate(38 44)"><tspan x="70" y="100">💅</tspan></text>
  </g>
</svg>
