<svg xmlns="http://www.w3.org/2000/svg" data-name="Layer 1" viewBox="0 0 783.57 464.73">
  <path fill="#ffb8b8" d="M568.32 223.42a9.38 9.38 0 0 1 13.82 3.94l21.43-.57 3.51 12.94-30.26.37a9.43 9.43 0 0 1-8.5-16.68Z"/>
  <path fill="#6c63ff" d="M592.34 244.1a7.18 7.18 0 0 1-2.27-4.78l-.85-12.85a7.15 7.15 0 0 1 2.78-6.16l34.53-26.54 20.08-24.36a12.57 12.57 0 0 1 17.06-2.18 12.55 12.55 0 0 1 2.67 17.68l-23.38 31.22-16.65 17.63a36.2 36.2 0 0 1-19.79 10.7l-8.03 1.44a7.17 7.17 0 0 1-5.68-1.4l-.47-.4Z"/>
  <path fill="#ffb8b8" d="m750.58 445.36-11.09 2.77-15.96-41.46 16.37-4.09 10.68 42.78z"/>
  <path fill="#2f2e41" d="m730.78 446.94 21.39-5.34 3.36 13.47-34.86 8.7a13.88 13.88 0 0 1 10.1-16.83Z"/>
  <path fill="#ffb8b8" d="M650.48 453.16h-11.43l-5.44-44.1h16.87v44.1z"/>
  <path fill="#2f2e41" d="M630.88 449.89h22.05v13.88H617a13.88 13.88 0 0 1 13.88-13.88Z"/>
  <circle cx="645.52" cy="110.32" r="24.56" fill="#ffb8b8"/>
  <path fill="#2f2e41" d="M645.48 111.19c.04-3.29 5.7-3.7 7.46-.9s.63 6.45-.92 9.37c-1.62 3.04-3.71 6.1-3.4 9.55a5.2 5.2 0 0 0 7.97 3.72c8.02-4.94 14.8-12.13 17.8-20.9 3.14-9.21 1.57-20.2-5.25-27.28s-19.03-9.09-27.12-3.42l-13.81-9.41a1.93 1.93 0 0 0-2.97 2.1l2.02 6.56-6.97-1.76a1.53 1.53 0 0 0-1.71 2.29l2.39 3.72c-3.2-2.63-8.71.37-9.17 4.42s2.84 7.79 6.71 9.31 8.2 1.35 12.37 1.16a9.82 9.82 0 0 0 4.56 10.57c3.6 2.1 8.59 1.6 10.04.9Zm5.32 323.35h-.15l-17.65-.56a4.5 4.5 0 0 1-4.36-4.74l8.83-162.17 67.86 19.25 44.5 138.78a4.5 4.5 0 0 1-4.16 5.87l-20.34.54a4.54 4.54 0 0 1-4.3-2.82l-45.77-114.5a1.5 1.5 0 0 0-2.88.34l-17.13 116.16a4.5 4.5 0 0 1-4.45 3.85Z"/>
  <path fill="#6c63ff" d="M702.04 307.76a22.88 22.88 0 0 1-13.42-4.36l-21.83-15.76a36.85 36.85 0 0 0-16.19-6.56l-10.5-1.53a6.57 6.57 0 0 1-5.63-6.8l4.19-100.24-2.49-14.3a6.18 6.18 0 0 1 2.6-6.14l19.46-13.31a8.14 8.14 0 0 1 5.23-1.4l.7.06a9.53 9.53 0 0 1 8.51 7.2l.75 2.98 12.94 23.02a85.42 85.42 0 0 1 8.55 21.68l12.28 50.44a90.98 90.98 0 0 1 2.2 13.34l4.07 45.36a4.55 4.55 0 0 1-2.86 4.66 23.03 23.03 0 0 1-8.56 1.66Z"/>
  <path fill="#ffb8b8" d="M661.3 271.43a9.38 9.38 0 0 1 9.02-11.2l7.82-19.95 13.28 1.8-11.44 28.01a9.43 9.43 0 0 1-18.67 1.34Z"/>
  <path fill="#6c63ff" d="M689.7 257.35a7.18 7.18 0 0 1-5.27.23l-12.18-4.21a7.15 7.15 0 0 1-4.59-4.97l-10.99-42.14-14.63-27.97a12.57 12.57 0 0 1 4.64-16.56 12.55 12.55 0 0 1 17.32 4.42l19.65 33.7 9.76 22.19a36.2 36.2 0 0 1 2.15 22.4l-1.8 7.95a7.17 7.17 0 0 1-3.5 4.69q-.27.15-.55.27Z"/>
  <path fill="#e6e6e6" d="M560 340.9H17.64a16.52 16.52 0 0 1-16.5-16.5V18.6H576.5v305.8a16.52 16.52 0 0 1-16.5 16.5Z"/>
  <path fill="#fff" d="M538.41 309.32H39.24a8.51 8.51 0 0 1-8.5-8.5V58.68a8.51 8.51 0 0 1 8.5-8.5H538.4a8.51 8.51 0 0 1 8.5 8.5v242.14a8.51 8.51 0 0 1-8.5 8.5Z"/>
  <path fill="#6c63ff" d="M577.65 29.75H0V16.5A16.52 16.52 0 0 1 16.5 0h544.65a16.52 16.52 0 0 1 16.5 16.5Z"/>
  <path fill="#e6e6e6" d="M166.25 97.7H77.4a8.5 8.5 0 0 0-8.5 8.5v58.4a8.5 8.5 0 0 0 8.5 8.5h88.85a8.51 8.51 0 0 0 8.5-8.5v-58.4a8.51 8.51 0 0 0-8.5-8.5Z"/>
  <path fill="#2f2e41" d="M78.41 125.73h36.7v-19.49l25.13 14.34 25.14 14.34-25.14 14.33-25.14 14.34v-18.26H78.41v-19.6z"/>
  <path fill="#e6e6e6" d="M333.25 97.7H244.4a8.5 8.5 0 0 0-8.5 8.5v58.4a8.5 8.5 0 0 0 8.5 8.5h88.85a8.51 8.51 0 0 0 8.5-8.5v-58.4a8.51 8.51 0 0 0-8.5-8.5Zm167 0H411.4a8.5 8.5 0 0 0-8.5 8.5v58.4a8.5 8.5 0 0 0 8.5 8.5h88.85a8.51 8.51 0 0 0 8.5-8.5v-58.4a8.51 8.51 0 0 0-8.5-8.5Zm-346.57 103H89.97a4.72 4.72 0 1 0 0 9.46h63.71a4.72 4.72 0 1 0 0-9.45Zm0 25.83H89.97a4.72 4.72 0 0 0-1.94 9.03 4.66 4.66 0 0 0 1.94.42h63.71a4.72 4.72 0 1 0 0-9.45Zm0 25.82H89.97a4.72 4.72 0 1 0 0 9.45h63.71a4.72 4.72 0 1 0 0-9.45Zm167-51.65h-63.71a4.72 4.72 0 1 0 0 9.46h63.71a4.72 4.72 0 1 0 0-9.45Zm0 25.83h-63.71a4.72 4.72 0 1 0 0 9.45h63.71a4.72 4.72 0 1 0 0-9.45Zm0 25.82h-63.71a4.72 4.72 0 0 0-1.49 9.2 4.6 4.6 0 0 0 1.49.25h63.71a4.72 4.72 0 1 0 0-9.45Zm167-51.65h-63.71a4.72 4.72 0 1 0 0 9.46h63.71a4.72 4.72 0 1 0 0-9.45Zm0 25.83h-63.71a4.72 4.72 0 0 0-1.94 9.03 4.66 4.66 0 0 0 1.94.42h63.71a4.72 4.72 0 1 0 0-9.45Zm0 25.82h-63.71a4.72 4.72 0 1 0 0 9.45h63.71a4.72 4.72 0 1 0 0-9.45Z"/>
  <circle cx="18.93" cy="15.05" r="4.28" fill="#fff"/>
  <circle cx="35.18" cy="15.05" r="4.28" fill="#fff"/>
  <circle cx="51.44" cy="15.05" r="4.28" fill="#fff"/>
  <path fill="#6c63ff" d="M135.55 200.7H89.97a4.72 4.72 0 1 0 0 9.46h44.63a5.38 5.38 0 0 0 .95-9.45Zm-21.05 25.83H89.97a4.72 4.72 0 0 0-1.94 9.03h22.53a5.38 5.38 0 0 0 5.38-5.38 5.27 5.27 0 0 0-1.44-3.65Zm34.42 25.82H89.97a4.72 4.72 0 1 0 0 9.45h59.33a5.37 5.37 0 0 0-.38-9.45Zm290.74-51.65h-15.69a4.73 4.73 0 0 0-2.31 8.86h13.9a5.38 5.38 0 0 0 5.38-5.38 5.3 5.3 0 0 0-1.28-3.47Zm11.84 25.83h-27.53a4.72 4.72 0 0 0-1.94 9.03h25.53a5.38 5.38 0 0 0 5.38-5.38 5.27 5.27 0 0 0-1.44-3.65Zm19.42 25.82h-46.95a4.72 4.72 0 1 0 0 9.45h47.33a5.37 5.37 0 0 0-.38-9.45Zm-154.67-25.82h-59.28a4.72 4.72 0 1 0 0 9.45h59.01a5.37 5.37 0 0 0 .27-9.45Zm-52.92 25.82h-6.36a4.72 4.72 0 0 0-1.49 9.2h4.08a5.38 5.38 0 0 0 5.38-5.37 5.31 5.31 0 0 0-1.61-3.83Zm28.22-51.65h-34.58a4.72 4.72 0 1 0 0 9.46h33.63a5.38 5.38 0 0 0 .95-9.45Z"/>
  <path fill="#ccc" d="M782.57 464.73h-217a1 1 0 0 1 0-2h217a1 1 0 1 1 0 2Z"/>
  <path fill="#2f2e41" d="M245.13 126.59h36.7V107.1l25.13 14.34 25.14 14.33-25.14 14.34-25.14 14.33V146.2h-36.69v-19.6zm200.01 39.39v-26.84h-20.97l15.42-18.38 15.43-18.4 15.42 18.4 15.43 18.38h-19.65v26.84h-21.08z"/>
</svg>
